<svg width="16" height="16" viewBox="0 0 16 16" fill="none" xmlns="http://www.w3.org/2000/svg">
<path d="M12.9981 5.326L8.00008 10.198L3.00208 5.326C2.91278 5.23877 2.79291 5.18993 2.66808 5.18993C2.54325 5.18993 2.42337 5.23877 2.33408 5.326C2.29084 5.36836 2.25649 5.41893 2.23304 5.47474C2.20959 5.53054 2.19751 5.59047 2.19751 5.651C2.19751 5.71153 2.20959 5.77146 2.23304 5.82726C2.25649 5.88307 2.29084 5.93364 2.33408 5.976L7.65108 11.16C7.74445 11.251 7.86968 11.302 8.00008 11.302C8.13047 11.302 8.2557 11.251 8.34908 11.16L13.6661 5.977C13.7096 5.9346 13.7442 5.88391 13.7679 5.82792C13.7915 5.77193 13.8037 5.71177 13.8037 5.651C13.8037 5.59023 13.7915 5.53007 13.7679 5.47408C13.7442 5.41809 13.7096 5.3674 13.6661 5.325C13.5768 5.23777 13.4569 5.18893 13.3321 5.18893C13.2072 5.18893 13.0874 5.23777 12.9981 5.325V5.326Z" fill="#303030" fill-opacity="0.8"/>
</svg>
